<svg id="Background" xmlns="http://www.w3.org/2000/svg" viewBox="0 0 1920 584.4"><title>Background</title><path d="M0,863.9s137.6-26.4,184.8-26.4,127,10.9,166.9-8.1,72.6-30.9,102.5-52.6,51.7-59,71.7-68.1,50.8-40.8,50.8-40.8,10.8-15.4,36.2-29.9,23.6-16.3,37.2-26.3,15.5-41.8,32.7-40.8,25.4-9.1,41.7-16.4,30.9-26.3,30.9-26.3-7.3-12.7,17.2-21.8,18.1-19,40.8,0,35.4,20.9,35.4,20.9,26.3,19.1,35.4,16.3,55.3-14.5,66.2-22.6,15.4-27.2,37.2-10,22.7,12.7,22.7,12.7,14.5,1.8,11.7,21.8,9.1,29.9,9.1,29.9,20.9-18.2,27.2-1.8,24.5-.9,30,19,8.1,29.1,24.5,30,61.6-2.8,86.1-.9,48.1-26.4,67.2-27.3,42.6-17.2,57.1-16.3,89.8-29.9,89.8-29.9a51.5,51.5,0,0,1,41.7-12.7c25.4,3.6,5.5,10,34.5,12.7s36.3,11.8,55.3,19.9,33.6,27.2,56.3,36.3,25.4,33.6,25.4,33.6l12.7,20.8,84.3-40.8s7.3,9.1,25.4,2.7,40.9,10,40.9,10-4.6,30,29.9,30.9S1920,677.9,1920,677.9V1080H0Z" transform="translate(0 -495.6)"/></svg>