<svg id="Layer_1" data-name="Layer 1" xmlns="http://www.w3.org/2000/svg" viewBox="0 0 1071.1 1084"><title>Cliff</title><path d="M1070.5-1,0,2V1083c632-3,913-3,922-4,12.1-1.3,18.8-11.3,46.3-24.1s5.8-38.8,10.2-52.6,21.5-18,22.4-29.2-36.1-26.6-37-37.8-22.4-19.8-22.4-19.8-41.2-23.1-30-32.6,18-54.3,18-54.3l34.4-12s32-.8,27.6-40.4-27.6-46.4-41.3-59.3-21.6-36.2-21.6-36.2-24-11-28.3-26.6-31-51.7-31-51.7a261.5,261.5,0,0,1-6.2-33c3.5-5.1,9-12.8,17.2-22.6,15.6-18.7-.1-32.8-2.3-42.5s-11.2-17.9,0-26.1,12-32.8,12-32.8-5.3-26.8,14.1-52.1,15.6-39.4,15.6-39.4,23.1-4.6,36.5-12,6.8-35.7,6.8-35.7,2.9-26.9,14.1-46.2-1.4-25.3,12.7-35,11.8-11.9,12.6-20.1,12.7-24.5,12.7-24.5l15.7-26.9,14.1-18.5a186.1,186.1,0,0,1,16.4-55.2C1074.6,52.3,1070.5-1,1070.5-1Z" transform="translate(0 1)" fill="#b26e32"/></svg>