<svg id="Foreground" xmlns="http://www.w3.org/2000/svg" viewBox="0 0 1920 786.3"><title>Foreground</title><path d="M1920-1.4c-.4.3-41.8,39.1-30.1,69.9s43.4,24.3,4.4,68.4c-33.5,38-20.6,45.3-16.4,46.7a1.1,1.1,0,0,1,.7,1.3h0a597.1,597.1,0,0,0-19.5,57.7c-9,32.1-15.4,39.6-30.8,49s-29.9,38.4-48,81.5c-16.5,39.5-11.1,53.8-10.1,56.1a.6.6,0,0,1,0,.6c-3.3,4.7-43.2,63-63.1,99.1s-35.3,105-35.3,105-80.6,26.3-110.5,66.6c-25.5,34.4-86.8,71.8-104,82h-1.6l80-.3,384.3,2.6V-1.4Z" transform="translate(0 1.4)" fill="#944f00"/><path d="M428,736.7c-16.9-26.2-37.3-42-60.4-58.9s-20.8-32.7-27.7-50.4-18.1-21.5-32.3-41.2-11.2-14.2-22-19.6-28.5-24.2-31.9-30-11.2-17.7-23.9-25.4-13.1-9.6-19.2-19.3-19.3-22.3-19.3-22.3-10-15-10-26.9-6.1-15-16.1-21.6-19.3-23-16.9-31.1.7-15-5.1-21.2-.3-18.9-.3-18.9a43.6,43.6,0,0,0,5.3-21.5c-.3-11.9-20.7-16.2-27.7-22.3s-11.9-5-18-6.6-6.2,2.3-14.7-19.6-19.6-26.2-19.6-26.2-6.5-25-10-43.4S43.6,191,32.8,184.9s13.1-24.8-8.9-26.2c-30-1.9-23.3,1.9-23.3,1.9L0,782c7.8-.2,200.7-.1,447.8-.1l.5-2.2S444.9,762.9,428,736.7Z" transform="translate(0 1.4)" fill="#944f00"/></svg>