<svg id="Lowground" xmlns="http://www.w3.org/2000/svg" viewBox="0 0 928.4 486.4"><title>Lowground</title><path d="M0,.6s56.2-4.4,85.2,9.7a197.3,197.3,0,0,0,58.2,17.3L163,42.5,191.3,59s17.3,12.6,25.9,13.4,11-1.6,21.2,13.3,16.5,1.6,36.9,13.4S324,114,324,114s29.9-7.1,37.7,7.1,12.6,38.5,12.6,38.5,14.9-4,41.6,16.5,55,14.9,55,14.9,26,.8,34.6,12.6,17.3,2.3,27.5,0,25.1-18.9,44.8-2.4S609.2,224,609.2,224s19.6,19.6,36.1,22.8,39.3,42.4,39.3,42.4-1.6,23.6,5.5,44.8,12.6,78.5,29.1,91.9,21.2,15.7,21.2,15.7,18.8-51.1,35.3-54.2,22.8-17.3,48,5.5,45.5,62.1,70.7,67.5a311.5,311.5,0,0,0,34,25.9H0Z" transform="translate(0 0)" fill="#b26e32"/><path d="M834.7-27.4" transform="translate(0 0)" fill="#b26e32"/></svg>