<svg id="Midground" xmlns="http://www.w3.org/2000/svg" viewBox="0 0 1922.2 507.3"><title>Midground</title><path d="M-1.4,790.5s61-32.8,107.3-21.9,68,12.2,68,12.2l109.8-9.5s-5,10.9,23.5,27.2c50.8,29.1,117.1,6.4,149.7,23.6s89.8,10,89.8,10l30.9-5.4L607.5,794s6.3-43.5,38.1-55.3,29.9-21.8,51.7-20,56.2-7.2,56.2-7.2,38.1-28.2,54.5-32.7,28.1-29.9,28.1-29.9,24.5-8.2,38.1-22.7,20.9-39,62.6-43.6,42.6,29.1,42.6,29.1L992.1,648s47.2,7.2,57.2,19,34.4-31.7,34.4-31.7,9.1-22.7,20.9-23.6,28.1-39.9,39.9-39,16.3,19,30.8,23.6,41.8-18.2,55.4,10.8,15.4,47.2,24.5,56.3,30.8,55.3,30.8,55.3,32.7,48.1,41.7,65.3,24.5,27.2,24.5,27.2,41.8-17.2,62.6-25.4,35.4-22.6,60.8-29.9,34.5-47.2,62.6-25.4,44.4,65.3,44.4,65.3,11.8,47.2,31.8,54.4,82.5,23.6,82.5,23.6,55.4,0,93.5-29.9,76.2-39.9,76.2-39.9l29.9,27.2s-3.6-11.8,12.7-47.2,10.8,52.6,10.8,52.6V1080L0,1079.8Z" transform="translate(1.4 -572.7)" /><path d="M1575.4,218.9" transform="translate(1.4 -572.7)" /></svg>